<?xml version="1.0" encoding="UTF-8" standalone="no" ?>
<!DOCTYPE svg PUBLIC "-//W3C//DTD SVG 1.1//EN" "http://www.w3.org/Graphics/SVG/1.1/DTD/svg11.dtd">
<svg xmlns="http://www.w3.org/2000/svg" xmlns:xlink="http://www.w3.org/1999/xlink" version="1.1" width="1000" height="600" viewBox="0 0 1000 600" xml:space="preserve">
<desc>Created with Fabric.js 3.6.3</desc>
<defs>
</defs>
<g transform="matrix(1 0 0 1 445.14 168.49)" id="1"   price="900" type="rect"  >
<rect style="stroke: rgb(0,0,0); stroke-width: 2; stroke-dasharray: none; stroke-linecap: butt; stroke-dashoffset: 0; stroke-linejoin: miter; stroke-miterlimit: 4; fill: rgb(255,0,0); fill-rule: nonzero; opacity: 1;"  x="-10" y="-10" rx="0" ry="0" width="20" height="20" />
</g>
<g transform="matrix(1 0 0 1 445.14 193.49)" id="2"   price="900" type="rect"  >
<rect style="stroke: rgb(0,0,0); stroke-width: 2; stroke-dasharray: none; stroke-linecap: butt; stroke-dashoffset: 0; stroke-linejoin: miter; stroke-miterlimit: 4; fill: rgb(255,0,0); fill-rule: nonzero; opacity: 1;"  x="-10" y="-10" rx="0" ry="0" width="20" height="20" />
</g>
<g transform="matrix(1 0 0 1 470.14 168.49)" id="3"   price="900" type="rect"  >
<rect style="stroke: rgb(0,0,0); stroke-width: 2; stroke-dasharray: none; stroke-linecap: butt; stroke-dashoffset: 0; stroke-linejoin: miter; stroke-miterlimit: 4; fill: rgb(255,0,0); fill-rule: nonzero; opacity: 1;"  x="-10" y="-10" rx="0" ry="0" width="20" height="20" />
</g>
<g transform="matrix(1 0 0 1 470.14 193.49)" id="4"   price="900" type="rect"  >
<rect style="stroke: rgb(0,0,0); stroke-width: 2; stroke-dasharray: none; stroke-linecap: butt; stroke-dashoffset: 0; stroke-linejoin: miter; stroke-miterlimit: 4; fill: rgb(255,0,0); fill-rule: nonzero; opacity: 1;"  x="-10" y="-10" rx="0" ry="0" width="20" height="20" />
</g>
<g transform="matrix(1 0 0 1 275.48 165.5)" id="5"   price="500" type="rect"  >
<rect style="stroke: rgb(0,0,0); stroke-width: 2; stroke-dasharray: none; stroke-linecap: butt; stroke-dashoffset: 0; stroke-linejoin: miter; stroke-miterlimit: 4; fill: rgb(255,0,0); fill-rule: nonzero; opacity: 1;"  x="-10" y="-10" rx="0" ry="0" width="20" height="20" />
</g>
<g transform="matrix(1 0 0 1 300.48 165.5)" id="6"   price="500" type="rect"  >
<rect style="stroke: rgb(0,0,0); stroke-width: 2; stroke-dasharray: none; stroke-linecap: butt; stroke-dashoffset: 0; stroke-linejoin: miter; stroke-miterlimit: 4; fill: rgb(255,0,0); fill-rule: nonzero; opacity: 1;"  x="-10" y="-10" rx="0" ry="0" width="20" height="20" />
</g>
<g transform="matrix(1 0 0 1 131 131)"   type="circle"  >
<circle style="stroke: rgb(0,0,0); stroke-width: 2; stroke-dasharray: none; stroke-linecap: butt; stroke-dashoffset: 0; stroke-linejoin: miter; stroke-miterlimit: 4; fill: rgb(255,255,0); fill-rule: nonzero; opacity: 1;"  cx="0" cy="0" r="30" />
</g>
</svg>